<svg width="118" height="155" viewBox="0 0 118 155" fill="none" xmlns="http://www.w3.org/2000/svg">
<rect width="118" height="155" rx="15" fill="#EB0029"/>
<rect x="23" y="19" width="70" height="70" rx="35" fill="white"/>
<path d="M78.5741 43.1484H52.1262V64.8806H78.5741V43.1484Z" fill="#FD624B"/>
<path opacity="0.3" d="M78.5741 43.1484H52.1262V64.8806H78.5741V43.1484Z" fill="white"/>
<path d="M58.6474 43.1484H38.1494V64.8806H58.6474V43.1484Z" fill="#FD624B"/>
<path opacity="0.1" d="M58.6474 43.1484H38.1494V64.8806H58.6474V43.1484Z" fill="white"/>
<path opacity="0.3" d="M51.2984 43.1484H45.4985V49.9115H51.2984V43.1484Z" fill="white"/>
<path opacity="0.1" d="M72.9388 43.1484H67.1389V49.9115H72.9388V43.1484Z" fill="black"/>
<path d="M67.4536 55.9385H66.6887C66.6766 55.7174 66.6766 55.4958 66.6887 55.2747C66.6887 54.9284 66.955 54.2598 67.4391 54.5629C67.5892 54.6542 67.7635 54.4426 67.6134 54.3512C67.5049 54.2863 67.3818 54.2493 67.2553 54.2433C67.1288 54.2373 67.0028 54.2626 66.8886 54.317C66.7744 54.3713 66.6755 54.453 66.6009 54.5547C66.5263 54.6564 66.4783 54.7749 66.4612 54.8996C66.3966 55.2387 66.3803 55.5852 66.4128 55.9289H65.9722C65.7979 55.9289 65.7495 56.1935 65.9286 56.1983H66.4128C66.4128 56.6216 66.4128 57.0449 66.4128 57.4682C66.4128 57.6461 66.6887 57.6125 66.6887 57.4393C66.6887 57.0256 66.6887 56.6168 66.6887 56.2031H67.4052C67.5843 56.2127 67.6328 55.9434 67.4536 55.9385Z" fill="white"/>
<path d="M68.7219 55.3421C68.7029 55.3374 68.6829 55.3374 68.6638 55.3421C67.41 55.2507 67.6084 57.2902 68.8091 57.2661C69.0656 57.2294 69.2993 57.0994 69.4648 56.9012C69.6303 56.703 69.7158 56.4508 69.7047 56.1935C69.7086 56.0696 69.6848 55.9464 69.6349 55.8327C69.585 55.7191 69.5104 55.6179 69.4164 55.5364C69.3223 55.455 69.2112 55.3953 69.0912 55.3617C68.9711 55.3281 68.8449 55.3214 68.7219 55.3421ZM68.9108 56.9727C68.0054 57.2084 67.715 55.5297 68.6445 55.6307C68.673 55.6385 68.7031 55.6385 68.7316 55.6307C69.6031 55.5008 69.6031 56.7899 68.9108 56.9727Z" fill="white"/>
<path d="M71.7138 55.8472C71.341 54.6446 69.4626 55.6307 70 56.7274C70.1372 56.9425 70.3484 57.1006 70.5942 57.1723C70.8401 57.2439 71.1038 57.2243 71.3362 57.117C71.4526 57.0724 71.5577 57.0026 71.6437 56.9127C71.7296 56.8227 71.7944 56.715 71.8333 56.5971C71.8723 56.4793 71.8843 56.3543 71.8687 56.2313C71.853 56.1082 71.8101 55.9902 71.7429 55.8856L71.7138 55.8472ZM70.2178 56.535C69.9613 55.8039 71.1861 55.092 71.4572 55.9578C71.4602 55.973 71.4666 55.9873 71.4758 55.9997C71.485 56.0122 71.4968 56.0225 71.5105 56.0299C71.9849 56.8717 70.4793 57.295 70.2178 56.535Z" fill="white"/>
<path d="M73.815 57.1747C73.7327 56.0683 73.6552 54.962 73.5729 53.8605C73.5729 53.6825 73.2873 53.7162 73.2969 53.8893L73.3986 55.2843C73.2518 55.237 73.096 55.2238 72.9432 55.2455C72.7904 55.2673 72.6447 55.3235 72.5171 55.4099C72.3896 55.4962 72.2836 55.6104 72.2073 55.7437C72.131 55.877 72.0864 56.0259 72.0769 56.179C72.0382 56.9245 72.9096 57.1795 73.5293 57.0977V57.2035C73.5535 57.3767 73.8295 57.3478 73.815 57.1747ZM72.3626 56.2992C72.3546 56.179 72.3763 56.0586 72.4257 55.9486C72.4751 55.8386 72.5508 55.7422 72.6461 55.6678C72.7415 55.5934 72.8537 55.5432 72.9731 55.5217C73.0924 55.5001 73.2152 55.5078 73.3308 55.544C73.3578 55.5512 73.3862 55.5512 73.4131 55.544C73.447 55.9673 73.4761 56.3906 73.51 56.8187C73.0888 56.8764 72.4255 56.7898 72.3529 56.2992H72.3626Z" fill="white"/>
<path d="M20.0632 107.926L16.9952 113.841V117H15.1752V113.841L12.0942 107.926H14.1482L16.0982 112.073L18.0352 107.926H20.0632ZM24.3108 117.117C23.6175 117.117 22.9935 116.965 22.4388 116.662C21.8842 116.35 21.4465 115.912 21.1258 115.349C20.8138 114.786 20.6578 114.136 20.6578 113.399C20.6578 112.662 20.8182 112.012 21.1388 111.449C21.4682 110.886 21.9145 110.452 22.4778 110.149C23.0412 109.837 23.6695 109.681 24.3628 109.681C25.0562 109.681 25.6845 109.837 26.2478 110.149C26.8112 110.452 27.2532 110.886 27.5738 111.449C27.9032 112.012 28.0678 112.662 28.0678 113.399C28.0678 114.136 27.8988 114.786 27.5608 115.349C27.2315 115.912 26.7808 116.35 26.2088 116.662C25.6455 116.965 25.0128 117.117 24.3108 117.117ZM24.3108 115.531C24.6402 115.531 24.9478 115.453 25.2338 115.297C25.5285 115.132 25.7625 114.89 25.9358 114.569C26.1092 114.248 26.1958 113.858 26.1958 113.399C26.1958 112.714 26.0138 112.19 25.6498 111.826C25.2945 111.453 24.8568 111.267 24.3368 111.267C23.8168 111.267 23.3792 111.453 23.0238 111.826C22.6772 112.19 22.5038 112.714 22.5038 113.399C22.5038 114.084 22.6728 114.612 23.0108 114.985C23.3575 115.349 23.7908 115.531 24.3108 115.531ZM36.2019 109.798V117H34.3689V116.09C34.1349 116.402 33.8272 116.649 33.4459 116.831C33.0732 117.004 32.6659 117.091 32.2239 117.091C31.6605 117.091 31.1622 116.974 30.7289 116.74C30.2955 116.497 29.9532 116.146 29.7019 115.687C29.4592 115.219 29.3379 114.664 29.3379 114.023V109.798H31.1579V113.763C31.1579 114.335 31.3009 114.777 31.5869 115.089C31.8729 115.392 32.2629 115.544 32.7569 115.544C33.2595 115.544 33.6539 115.392 33.9399 115.089C34.2259 114.777 34.3689 114.335 34.3689 113.763V109.798H36.2019ZM39.8176 110.916C40.0516 110.535 40.3549 110.236 40.7276 110.019C41.1089 109.802 41.5423 109.694 42.0276 109.694V111.605H41.5466C40.9746 111.605 40.5413 111.739 40.2466 112.008C39.9606 112.277 39.8176 112.745 39.8176 113.412V117H37.9976V109.798H39.8176V110.916ZM51.9541 107.926V109.395H48.1711V111.722H51.0701V113.165H48.1711V117H46.3511V107.926H51.9541ZM56.4427 117.117C55.7493 117.117 55.1253 116.965 54.5707 116.662C54.016 116.35 53.5783 115.912 53.2577 115.349C52.9457 114.786 52.7897 114.136 52.7897 113.399C52.7897 112.662 52.95 112.012 53.2707 111.449C53.6 110.886 54.0463 110.452 54.6097 110.149C55.173 109.837 55.8013 109.681 56.4947 109.681C57.188 109.681 57.8163 109.837 58.3797 110.149C58.943 110.452 59.385 110.886 59.7057 111.449C60.035 112.012 60.1997 112.662 60.1997 113.399C60.1997 114.136 60.0307 114.786 59.6927 115.349C59.3633 115.912 58.9127 116.35 58.3407 116.662C57.7773 116.965 57.1447 117.117 56.4427 117.117ZM56.4427 115.531C56.772 115.531 57.0797 115.453 57.3657 115.297C57.6603 115.132 57.8943 114.89 58.0677 114.569C58.241 114.248 58.3277 113.858 58.3277 113.399C58.3277 112.714 58.1457 112.19 57.7817 111.826C57.4263 111.453 56.9887 111.267 56.4687 111.267C55.9487 111.267 55.511 111.453 55.1557 111.826C54.809 112.19 54.6357 112.714 54.6357 113.399C54.6357 114.084 54.8047 114.612 55.1427 114.985C55.4893 115.349 55.9227 115.531 56.4427 115.531ZM64.7327 117.117C64.0394 117.117 63.4154 116.965 62.8607 116.662C62.306 116.35 61.8684 115.912 61.5477 115.349C61.2357 114.786 61.0797 114.136 61.0797 113.399C61.0797 112.662 61.24 112.012 61.5607 111.449C61.89 110.886 62.3364 110.452 62.8997 110.149C63.463 109.837 64.0914 109.681 64.7847 109.681C65.478 109.681 66.1064 109.837 66.6697 110.149C67.233 110.452 67.675 110.886 67.9957 111.449C68.325 112.012 68.4897 112.662 68.4897 113.399C68.4897 114.136 68.3207 114.786 67.9827 115.349C67.6534 115.912 67.2027 116.35 66.6307 116.662C66.0674 116.965 65.4347 117.117 64.7327 117.117ZM64.7327 115.531C65.062 115.531 65.3697 115.453 65.6557 115.297C65.9504 115.132 66.1844 114.89 66.3577 114.569C66.531 114.248 66.6177 113.858 66.6177 113.399C66.6177 112.714 66.4357 112.19 66.0717 111.826C65.7164 111.453 65.2787 111.267 64.7587 111.267C64.2387 111.267 63.801 111.453 63.4457 111.826C63.099 112.19 62.9257 112.714 62.9257 113.399C62.9257 114.084 63.0947 114.612 63.4327 114.985C63.7794 115.349 64.2127 115.531 64.7327 115.531ZM69.3567 113.373C69.3567 112.645 69.4997 111.999 69.7857 111.436C70.0804 110.873 70.4791 110.439 70.9817 110.136C71.4844 109.833 72.0434 109.681 72.6587 109.681C73.1267 109.681 73.5731 109.785 73.9977 109.993C74.4224 110.192 74.7604 110.461 75.0117 110.799V107.38H76.8577V117H75.0117V115.934C74.7864 116.289 74.4701 116.575 74.0627 116.792C73.6554 117.009 73.1831 117.117 72.6457 117.117C72.0391 117.117 71.4844 116.961 70.9817 116.649C70.4791 116.337 70.0804 115.899 69.7857 115.336C69.4997 114.764 69.3567 114.11 69.3567 113.373ZM75.0247 113.399C75.0247 112.957 74.9381 112.58 74.7647 112.268C74.5914 111.947 74.3574 111.705 74.0627 111.54C73.7681 111.367 73.4517 111.28 73.1137 111.28C72.7757 111.28 72.4637 111.362 72.1777 111.527C71.8917 111.692 71.6577 111.934 71.4757 112.255C71.3024 112.567 71.2157 112.94 71.2157 113.373C71.2157 113.806 71.3024 114.188 71.4757 114.517C71.6577 114.838 71.8917 115.085 72.1777 115.258C72.4724 115.431 72.7844 115.518 73.1137 115.518C73.4517 115.518 73.7681 115.436 74.0627 115.271C74.3574 115.098 74.5914 114.855 74.7647 114.543C74.9381 114.222 75.0247 113.841 75.0247 113.399ZM89.2599 107.926V117H87.4399V113.139H83.5529V117H81.7329V107.926H83.5529V111.657H87.4399V107.926H89.2599ZM90.5833 113.373C90.5833 112.645 90.7263 111.999 91.0123 111.436C91.307 110.873 91.7013 110.439 92.1953 110.136C92.698 109.833 93.257 109.681 93.8723 109.681C94.4096 109.681 94.8776 109.789 95.2763 110.006C95.6836 110.223 96.0086 110.496 96.2513 110.825V109.798H98.0843V117H96.2513V115.947C96.0173 116.285 95.6923 116.567 95.2763 116.792C94.869 117.009 94.3966 117.117 93.8593 117.117C93.2526 117.117 92.698 116.961 92.1953 116.649C91.7013 116.337 91.307 115.899 91.0123 115.336C90.7263 114.764 90.5833 114.11 90.5833 113.373ZM96.2513 113.399C96.2513 112.957 96.1646 112.58 95.9913 112.268C95.818 111.947 95.584 111.705 95.2893 111.54C94.9946 111.367 94.6783 111.28 94.3403 111.28C94.0023 111.28 93.6903 111.362 93.4043 111.527C93.1183 111.692 92.8843 111.934 92.7023 112.255C92.529 112.567 92.4423 112.94 92.4423 113.373C92.4423 113.806 92.529 114.188 92.7023 114.517C92.8843 114.838 93.1183 115.085 93.4043 115.258C93.699 115.431 94.011 115.518 94.3403 115.518C94.6783 115.518 94.9946 115.436 95.2893 115.271C95.584 115.098 95.818 114.855 95.9913 114.543C96.1646 114.222 96.2513 113.841 96.2513 113.399ZM102.618 117.117C102.029 117.117 101.5 117.013 101.032 116.805C100.564 116.588 100.191 116.298 99.9138 115.934C99.6452 115.57 99.4978 115.167 99.4718 114.725H101.305C101.34 115.002 101.474 115.232 101.708 115.414C101.951 115.596 102.25 115.687 102.605 115.687C102.952 115.687 103.22 115.618 103.411 115.479C103.61 115.34 103.71 115.163 103.71 114.946C103.71 114.712 103.589 114.539 103.346 114.426C103.112 114.305 102.735 114.175 102.215 114.036C101.678 113.906 101.236 113.772 100.889 113.633C100.551 113.494 100.256 113.282 100.005 112.996C99.7622 112.71 99.6408 112.324 99.6408 111.839C99.6408 111.44 99.7535 111.076 99.9788 110.747C100.213 110.418 100.542 110.158 100.967 109.967C101.4 109.776 101.907 109.681 102.488 109.681C103.346 109.681 104.031 109.898 104.542 110.331C105.053 110.756 105.335 111.332 105.387 112.06H103.645C103.619 111.774 103.498 111.549 103.281 111.384C103.073 111.211 102.791 111.124 102.436 111.124C102.107 111.124 101.851 111.185 101.669 111.306C101.496 111.427 101.409 111.596 101.409 111.813C101.409 112.056 101.53 112.242 101.773 112.372C102.016 112.493 102.393 112.619 102.904 112.749C103.424 112.879 103.853 113.013 104.191 113.152C104.529 113.291 104.819 113.507 105.062 113.802C105.313 114.088 105.443 114.469 105.452 114.946C105.452 115.362 105.335 115.735 105.101 116.064C104.876 116.393 104.546 116.653 104.113 116.844C103.688 117.026 103.19 117.117 102.618 117.117ZM41.4351 137.271H37.8211L37.2231 139H35.3121L38.5751 129.913H40.6941L43.9571 139H42.0331L41.4351 137.271ZM40.9411 135.815L39.6281 132.019L38.3151 135.815H40.9411ZM46.9968 132.916C47.2308 132.535 47.5341 132.236 47.9068 132.019C48.2881 131.802 48.7215 131.694 49.2068 131.694V133.605H48.7258C48.1538 133.605 47.7205 133.739 47.4258 134.008C47.1398 134.277 46.9968 134.745 46.9968 135.412V139H45.1768V131.798H46.9968V132.916ZM52.2526 132.916C52.4866 132.535 52.79 132.236 53.1626 132.019C53.544 131.802 53.9773 131.694 54.4626 131.694V133.605H53.9816C53.4096 133.605 52.9763 133.739 52.6816 134.008C52.3956 134.277 52.2526 134.745 52.2526 135.412V139H50.4326V131.798H52.2526V132.916ZM56.6115 130.94C56.2908 130.94 56.0222 130.84 55.8055 130.641C55.5975 130.433 55.4935 130.177 55.4935 129.874C55.4935 129.571 55.5975 129.319 55.8055 129.12C56.0222 128.912 56.2908 128.808 56.6115 128.808C56.9322 128.808 57.1965 128.912 57.4045 129.12C57.6212 129.319 57.7295 129.571 57.7295 129.874C57.7295 130.177 57.6212 130.433 57.4045 130.641C57.1965 130.84 56.9322 130.94 56.6115 130.94ZM57.5085 131.798V139H55.6885V131.798H57.5085ZM62.3097 137.323L64.1297 131.798H66.0667L63.4017 139H61.1917L58.5397 131.798H60.4897L62.3097 137.323ZM73.7839 135.243C73.7839 135.503 73.7666 135.737 73.7319 135.945H68.4669C68.5102 136.465 68.6922 136.872 69.0129 137.167C69.3336 137.462 69.7279 137.609 70.1959 137.609C70.8719 137.609 71.3529 137.319 71.6389 136.738H73.6019C73.3939 137.431 72.9952 138.003 72.4059 138.454C71.8166 138.896 71.0929 139.117 70.2349 139.117C69.5416 139.117 68.9176 138.965 68.3629 138.662C67.8169 138.35 67.3879 137.912 67.0759 137.349C66.7726 136.786 66.6209 136.136 66.6209 135.399C66.6209 134.654 66.7726 133.999 67.0759 133.436C67.3792 132.873 67.8039 132.439 68.3499 132.136C68.8959 131.833 69.5242 131.681 70.2349 131.681C70.9196 131.681 71.5306 131.828 72.0679 132.123C72.6139 132.418 73.0342 132.838 73.3289 133.384C73.6322 133.921 73.7839 134.541 73.7839 135.243ZM71.8989 134.723C71.8902 134.255 71.7212 133.882 71.3919 133.605C71.0626 133.319 70.6596 133.176 70.1829 133.176C69.7322 133.176 69.3509 133.315 69.0389 133.592C68.7356 133.861 68.5492 134.238 68.4799 134.723H71.8989ZM74.6443 135.373C74.6443 134.645 74.7873 133.999 75.0733 133.436C75.368 132.873 75.7667 132.439 76.2693 132.136C76.772 131.833 77.331 131.681 77.9463 131.681C78.4143 131.681 78.8607 131.785 79.2853 131.993C79.71 132.192 80.048 132.461 80.2993 132.799V129.38H82.1453V139H80.2993V137.934C80.074 138.289 79.7577 138.575 79.3503 138.792C78.943 139.009 78.4707 139.117 77.9333 139.117C77.3267 139.117 76.772 138.961 76.2693 138.649C75.7667 138.337 75.368 137.899 75.0733 137.336C74.7873 136.764 74.6443 136.11 74.6443 135.373ZM80.3123 135.399C80.3123 134.957 80.2257 134.58 80.0523 134.268C79.879 133.947 79.645 133.705 79.3503 133.54C79.0557 133.367 78.7393 133.28 78.4013 133.28C78.0633 133.28 77.7513 133.362 77.4653 133.527C77.1793 133.692 76.9453 133.934 76.7633 134.255C76.59 134.567 76.5033 134.94 76.5033 135.373C76.5033 135.806 76.59 136.188 76.7633 136.517C76.9453 136.838 77.1793 137.085 77.4653 137.258C77.76 137.431 78.072 137.518 78.4013 137.518C78.7393 137.518 79.0557 137.436 79.3503 137.271C79.645 137.098 79.879 136.855 80.0523 136.543C80.2257 136.222 80.3123 135.841 80.3123 135.399Z" fill="white"/>
</svg>
